<?xml version="1.0" encoding="UTF-8" standalone="no"?><!-- Generator: Gravit.io --><svg xmlns="http://www.w3.org/2000/svg" xmlns:xlink="http://www.w3.org/1999/xlink" style="isolation:isolate" viewBox="0 0 20 20" width="20pt" height="20pt"><defs><clipPath id="_clipPath_i0ttmiUTjrcfEf5QkA4Ckp2zLbJrKJf2"><rect width="20" height="20"/></clipPath></defs><g clip-path="url(#_clipPath_i0ttmiUTjrcfEf5QkA4Ckp2zLbJrKJf2)"><rect width="20" height="20" style="fill:rgb(0,0,0)" fill-opacity="0"/><path d=" M 15.4 1 L 4.6 1 C 2.615 1 1 2.615 1 4.6 L 1 15.4 C 1 17.385 2.615 19 4.6 19 L 15.4 19 C 17.385 19 19 17.385 19 15.4 L 19 4.6 C 19 2.615 17.385 1 15.4 1 Z  M 15.04 7.12 L 13.96 7.12 C 13.188 7.12 12.88 7.301 12.88 7.84 L 12.88 8.92 L 15.04 8.92 L 14.68 11.08 L 12.88 11.08 L 12.88 18.28 L 10.36 18.28 L 10.36 11.08 L 9.28 11.08 L 9.28 8.92 L 10.36 8.92 L 10.36 7.84 C 10.36 6.156 10.929 4.96 12.88 4.96 C 13.925 4.96 15.04 5.32 15.04 5.32 L 15.04 7.12 Z " fill="rgb(255,255,255)"/></g></svg>