<?xml version="1.0" encoding="UTF-8" standalone="no"?><!-- Generator: Gravit.io --><svg xmlns="http://www.w3.org/2000/svg" xmlns:xlink="http://www.w3.org/1999/xlink" style="isolation:isolate" viewBox="0 0 20 20" width="20pt" height="20pt"><defs><clipPath id="_clipPath_mB5ZWveq0U4tOWzBKM0OA9g0sp2kpDS8"><rect width="20" height="20"/></clipPath></defs><g clip-path="url(#_clipPath_mB5ZWveq0U4tOWzBKM0OA9g0sp2kpDS8)"><rect width="20" height="20" style="fill:rgb(0,0,0)" fill-opacity="0"/><path d=" M 6.225 1 C 3.347 1 1 3.347 1 6.225 L 1 13.775 C 1 16.653 3.347 19 6.225 19 L 13.775 19 C 16.653 19 19 16.653 19 13.775 L 19 6.225 C 19 3.347 16.653 1 13.775 1 L 6.225 1 Z  M 6.225 2.385 L 13.775 2.385 C 14.795 2.381 15.773 2.785 16.494 3.506 C 17.215 4.227 17.619 5.205 17.615 6.225 L 17.615 13.775 C 17.619 14.795 17.215 15.773 16.494 16.494 C 15.773 17.215 14.795 17.619 13.775 17.615 L 6.225 17.615 C 5.205 17.619 4.227 17.215 3.506 16.494 C 2.785 15.773 2.381 14.795 2.385 13.775 L 2.385 6.225 C 2.381 5.205 2.785 4.227 3.506 3.506 C 4.227 2.785 5.205 2.381 6.225 2.385 L 6.225 2.385 Z  M 15.192 3.769 C 14.619 3.769 14.154 4.234 14.154 4.808 C 14.154 5.381 14.619 5.846 15.192 5.846 C 15.766 5.846 16.231 5.381 16.231 4.808 C 16.231 4.234 15.766 3.769 15.192 3.769 Z  M 10 5.154 C 7.331 5.154 5.154 7.331 5.154 10 C 5.154 12.669 7.331 14.846 10 14.846 C 12.669 14.846 14.846 12.669 14.846 10 C 14.846 7.331 12.669 5.154 10 5.154 Z  M 10 6.538 C 11.92 6.538 13.462 8.08 13.462 10 C 13.462 11.92 11.92 13.462 10 13.462 C 8.08 13.462 6.538 11.92 6.538 10 C 6.538 8.08 8.08 6.538 10 6.538 Z " fill="rgb(255,255,255)"/></g></svg>