<?xml version="1.0" encoding="UTF-8" standalone="no"?><!-- Generator: Gravit.io --><svg xmlns="http://www.w3.org/2000/svg" xmlns:xlink="http://www.w3.org/1999/xlink" style="isolation:isolate" viewBox="0 0 20 20" width="20pt" height="20pt"><defs><clipPath id="_clipPath_2eyisdg2kGVhX4C07shnVEGKZlIcsqBh"><rect width="20" height="20"/></clipPath></defs><g clip-path="url(#_clipPath_2eyisdg2kGVhX4C07shnVEGKZlIcsqBh)"><rect width="20" height="20" style="fill:rgb(0,0,0)" fill-opacity="0"/><path d=" M 15.4 1 L 4.6 1 C 2.614 1 1 2.614 1 4.6 L 1 15.4 C 1 17.386 2.614 19 4.6 19 L 15.4 19 C 17.386 19 19 17.386 19 15.4 L 19 4.6 C 19 2.614 17.386 1 15.4 1 Z  M 6.76 13.563 L 6.76 16.12 L 3.88 16.12 L 3.88 7.84 L 6.76 7.84 L 6.76 13.563 Z  M 5.32 6.94 C 4.457 6.94 3.88 6.328 3.88 5.572 C 3.88 4.816 4.457 4.24 5.32 4.24 C 6.183 4.24 6.723 4.817 6.76 5.572 C 6.76 6.328 6.22 6.94 5.32 6.94 Z  M 16.12 16.12 L 13.24 16.12 L 13.24 11.44 C 13.24 11.117 13.203 10 11.98 10 C 10.9 10 10.72 11.043 10.72 11.44 L 10.72 16.12 L 7.84 16.12 L 7.84 7.84 L 10.72 7.84 L 10.72 8.957 C 10.72 8.957 11.297 7.84 12.988 7.84 C 14.717 7.84 16.12 9.028 16.12 11.44 L 16.12 16.12 Z " fill="rgb(255,255,255)"/></g></svg>