<?xml version="1.0" encoding="UTF-8" standalone="no"?><!-- Generator: Gravit.io --><svg xmlns="http://www.w3.org/2000/svg" xmlns:xlink="http://www.w3.org/1999/xlink" style="isolation:isolate" viewBox="0 0 50 50" width="50pt" height="50pt"><defs><clipPath id="_clipPath_hKlrCE6l5rmhY7Dwh6uRhQJJsz1xUFUc"><rect width="50" height="50"/></clipPath></defs><g clip-path="url(#_clipPath_hKlrCE6l5rmhY7Dwh6uRhQJJsz1xUFUc)"><rect width="50" height="50" style="fill:rgb(0,0,0)" fill-opacity="0"/><g><g><path d=" M 18.921 33.228 C 18.805 33.289 18.692 33.364 18.582 33.452 L 9.264 33.452 L 9.264 43.036 L 15.153 48.971 L 34.974 48.971 L 40.748 43.204 L 40.748 25.295 L 34.765 19.513 L 27.288 19.513 C 27.263 18.965 27.378 18.481 27.378 18.481 C 28.177 18.087 28.994 19.079 28.994 19.079 C 29.375 19.047 29.858 19.323 29.858 19.323 C 30.425 19.136 32.127 19.576 32.204 19.452 C 32.269 18.436 31.854 17.816 31.514 17.484 L 40.75 17.484 L 40.75 7.76 L 34.171 1.029 L 16.112 1.029 L 9.25 7.844 L 9.25 25.375 L 15.21 31.334 L 20.631 31.334 C 20.506 31.653 20.377 31.916 20.377 31.916 L 18.921 33.228 Z  M 28.926 15.871 C 28.73 15.781 28.472 15.779 28.472 15.779 L 28.114 15.393 C 28.114 14.589 27.239 14.808 27.239 14.808 L 27.312 14.371 C 27.552 14.371 28.217 14.465 28.928 14.564 L 28.928 15.871 L 28.926 15.871 L 28.926 15.871 Z  M 28.253 34.465 L 29.457 34.513 L 29.457 37.418 L 26.594 37.418 L 26.592 36.926 L 26.623 34.289 C 26.673 33.653 27.147 34.031 27.147 34.031 C 27.548 34.436 28.253 34.465 28.253 34.465 Z  M 28.926 13.025 C 28.891 13.012 28.857 12.995 28.822 12.98 L 28.926 12.98 L 28.926 13.025 Z  M 15.531 30.558 L 10.037 25.065 L 10.037 8.197 L 16.423 1.84 L 33.831 1.84 L 40.034 8.201 L 40.034 16.704 L 30.549 16.704 C 30.481 16.595 30.436 16.509 30.436 16.509 C 30.269 16.204 29.975 16.091 29.709 16.053 L 29.709 14.671 C 30.459 14.769 31.107 14.838 31.183 14.761 C 31.535 14.407 30.629 13.839 29.709 13.387 L 29.709 12.209 L 27.142 12.209 C 26.504 11.779 26.405 11.409 26.405 11.409 C 26.186 10.023 27.717 10.589 27.717 10.589 C 28.527 10.651 28.694 10.19 28.694 10.19 C 28.381 9.285 27.239 8.994 27.056 8.917 C 26.84 8.827 26.806 8.745 26.889 8.579 C 26.946 8.465 27.562 8.743 27.762 8.547 C 28.218 8.088 26.63 7.074 26.63 7.074 C 27.663 7.017 26.523 5.96 26.523 5.96 C 25.835 5.416 26.075 4.938 26.075 4.938 C 26.801 5.011 26.799 4.25 26.686 4.222 C 25.617 3.977 25.799 3.56 25.799 3.56 C 25.799 3.195 25.621 2.818 25.621 2.818 C 25.766 2.163 25.47 2.294 25.47 2.294 C 25.034 2.294 25.286 2.684 25.286 2.684 C 25.128 3.343 24.674 3.8 24.674 3.8 C 23.687 3.781 24.202 4.707 24.202 4.707 L 24.815 4.651 L 24.672 5.251 C 23.249 5.872 23.638 6.897 24.449 6.991 C 24.521 7.175 24.406 7.34 24.406 7.34 C 23.562 7.377 23.73 7.7 23.017 8.048 C 22.464 8.322 22.477 8.604 22.52 8.804 C 22.601 9.203 23.135 8.823 23.135 8.823 L 22.61 9.537 C 20.853 10.318 22.403 10.829 22.403 10.829 C 23.785 10.002 24.325 10.318 24.325 10.318 C 24.543 11.187 24.11 11.802 23.605 12.204 L 20.887 12.204 C 20.887 12.453 20.887 12.884 20.887 13.425 C 20.036 14.015 19.726 14.803 19.726 14.803 C 19.143 15.388 19.434 15.678 19.434 15.678 C 19.724 15.824 20.338 15.588 20.885 15.317 C 20.885 15.862 20.885 16.43 20.885 16.979 C 20.84 17 20.81 17.015 20.81 17.015 C 20.446 17.743 19.06 18.328 19.06 18.328 C 17.384 19.054 18.185 20.006 18.185 20.006 C 18.453 20.051 19.846 19.763 20.886 19.539 C 20.886 19.873 20.886 20.143 20.886 20.321 C 21.215 20.321 22.133 20.321 23.339 20.321 C 23.031 20.845 22.489 21.39 22.489 21.39 C 22.268 22.118 21.395 22.413 21.395 22.413 C 19.062 22.994 19.206 23.796 19.206 23.796 L 20.956 23.65 C 21.466 23.214 21.832 23.65 21.832 23.65 L 22.415 23.796 C 22.709 24.233 22.276 25.529 22.276 25.529 L 21.11 25.529 C 21.037 25.968 20.236 25.964 20.236 25.964 C 19.872 25.822 19.432 26.259 19.432 26.259 C 19.287 26.55 18.631 26.843 18.631 26.843 C 18.048 26.985 18.486 27.278 18.486 27.278 C 18.997 26.914 18.997 27.714 18.997 27.714 C 18.852 28.08 17.665 28.063 17.684 28.371 C 17.721 28.915 21.696 27.274 21.696 27.274 C 22.205 26.843 22.569 27.061 22.569 27.061 C 22.934 27.642 21.841 28.371 21.841 28.371 C 21.404 28.881 20.692 29.162 20.692 29.162 C 19.009 29.434 18.819 30.409 18.802 30.553 C 16.895 30.558 15.531 30.558 15.531 30.558 Z  M 21.915 14.736 C 22.718 13.932 23.301 14.736 23.301 14.736 C 24.687 15.247 23.74 15.755 23.74 15.755 C 23.558 15.755 22.487 16.237 21.692 16.604 L 21.692 14.875 C 21.831 14.793 21.915 14.736 21.915 14.736 Z  M 21.692 13.021 L 21.692 12.98 L 21.809 12.98 C 21.768 12.993 21.73 13.008 21.692 13.021 Z  M 22.051 19.276 C 23.365 18.768 23.438 19.498 23.438 19.498 C 23.442 19.503 23.444 19.505 23.448 19.511 L 21.692 19.511 L 21.692 19.361 C 21.915 19.31 22.051 19.276 22.051 19.276 Z  M 24.503 34.415 C 24.741 34.904 24.786 36.239 24.786 36.239 L 24.786 36.511 L 24.759 37.422 L 22.131 37.422 L 22.131 35.032 C 22.71 34.611 23.099 33.82 23.099 33.82 C 23.841 33.511 24.264 33.925 24.503 34.415 Z  M 18.895 30.558 L 20.682 30.192 C 20.825 30.211 20.862 30.355 20.845 30.558 C 20.159 30.558 19.502 30.558 18.895 30.558 Z  M 20.671 35.634 C 20.89 35.264 21.254 35.27 21.254 35.27 C 21.28 35.274 21.303 35.272 21.327 35.277 C 21.327 36.231 21.327 37.603 21.327 38.233 C 21.843 38.233 23.245 38.233 24.796 38.233 L 24.734 39.612 C 24.717 40.232 24.677 41.554 24.626 41.931 C 24.479 43.05 24.223 43.208 24.065 43.31 C 23.843 43.45 23.515 43.509 23.035 43.714 C 21.853 44.212 21.955 45.457 21.385 45.819 C 20.688 46.263 20.879 46.121 20.26 46.259 C 19.638 46.397 19.303 47.085 19.303 47.085 L 31.966 47.085 C 31.917 46.694 32.002 46.34 30.519 45.848 C 29.073 45.369 29.803 45.11 27.94 44.162 C 27.269 43.823 26.915 42.617 26.731 41.715 C 26.592 41.029 26.674 40.715 26.674 40.715 L 26.602 38.637 L 26.6 38.233 C 28.22 38.233 29.705 38.233 30.238 38.233 C 30.238 37.654 30.24 36.12 30.24 34.554 C 31.107 34.703 32.555 35.85 32.555 35.85 C 34.086 36.727 33.796 35.774 33.796 35.774 C 33.358 32.644 31.534 32.351 31.534 32.351 C 30.442 32.058 31.17 31.401 31.17 31.401 C 32.484 30.382 30.933 30.101 30.933 30.101 C 29.913 30.242 28.83 29.553 28.83 29.553 C 27.007 28.166 27.673 27.276 27.673 27.276 C 27.819 26.328 29.986 27.735 29.986 27.735 C 30.569 28.245 31.152 27.804 31.152 27.804 C 31.224 27.513 31.904 26.983 31.904 26.983 C 33.144 26.035 30.152 25.82 30.152 25.82 C 28.729 24.93 27.855 24.629 27.433 23.514 C 27.314 23.201 27.307 22.992 27.307 22.992 C 27.307 22.992 29.548 23.201 29.673 23.229 C 29.799 23.256 30.606 23.346 30.586 23.063 C 30.571 22.856 30.177 22.245 29.261 21.833 C 28.46 21.475 27.774 20.771 27.498 20.316 C 30.942 20.316 34.417 20.316 34.417 20.316 L 40.036 25.708 L 40.036 42.79 L 34.546 48.283 L 15.56 48.283 L 10.049 42.71 L 10.049 34.264 L 17.825 34.264 C 16.93 35.496 16.394 37.223 16.394 37.223 C 16.321 38.098 17.543 37.369 17.543 37.369 C 17.543 37.369 17.665 37.149 17.705 37.076 C 18.138 36.346 19.312 36.274 19.312 36.274 C 19.893 36.415 20.671 35.634 20.671 35.634 Z " fill="rgb(255,255,255)"/><path d=" M 26.137 3.513 C 26.182 3.552 26.333 3.668 26.789 3.771 C 27.042 3.828 27.207 4.064 27.211 4.343 C 27.211 4.384 27.207 4.429 27.203 4.472 C 27.155 4.754 26.941 5.188 26.571 5.294 C 26.595 5.311 26.763 5.442 26.763 5.442 C 27.396 5.935 27.912 6.863 27.382 7.039 C 28.1 7.529 28.339 8.037 28.347 8.234 C 28.368 8.68 28.104 8.785 28.057 8.85 C 28.476 9.053 28.936 9.456 29.138 10.042 L 29.191 10.202 L 29.135 10.357 C 29.03 10.651 28.604 11.134 27.68 11.065 L 27.625 11.057 L 27.571 11.042 C 27.292 10.954 27.008 10.92 26.894 11.02 C 26.864 11.048 26.828 11.091 26.828 11.186 C 26.828 11.222 26.869 11.278 26.873 11.318 C 26.887 11.347 26.922 11.4 26.98 11.47 L 30.509 11.47 L 30.509 13.275 C 31.148 13.645 31.628 14.046 31.713 14.436 C 31.723 14.483 31.731 14.532 31.733 14.582 C 31.733 14.77 31.66 14.952 31.517 15.096 C 31.359 15.254 31.188 15.308 30.509 15.246 L 30.509 15.893 C 30.537 15.917 30.562 15.94 30.591 15.968 L 39.244 15.968 L 39.244 8.589 L 33.507 2.69 L 26.072 2.69 C 26.067 2.71 26.063 2.729 26.061 2.745 C 26.14 2.864 26.253 3.498 26.137 3.513 Z " fill="rgb(255,255,255)"/><path d=" M 21.479 28.072 L 21.522 28.024 L 21.573 27.986 C 21.7 27.902 21.811 27.804 21.91 27.706 C 21.89 27.714 21.871 27.72 21.871 27.72 C 18.127 29.259 17.656 28.961 17.478 28.85 C 17.318 28.756 17.224 28.593 17.21 28.411 C 17.21 28.396 17.208 28.384 17.208 28.371 C 17.204 27.861 17.77 27.712 18.149 27.616 C 17.995 27.493 17.86 27.3 17.856 27.072 C 17.854 27.036 17.858 26.999 17.862 26.961 C 17.894 26.777 18.029 26.534 18.455 26.409 C 18.694 26.3 18.944 26.164 18.995 26.085 C 19.002 26.074 19.06 25.988 19.06 25.988 L 19.107 25.94 C 19.173 25.873 19.737 25.277 20.292 25.505 C 20.449 25.505 20.579 25.456 20.65 25.409 C 20.663 25.337 20.708 25.061 20.708 25.061 L 21.921 25.061 C 22.002 24.745 22.05 24.43 22.047 24.23 C 22.047 24.216 22.043 24.211 22.041 24.194 C 21.88 24.153 21.717 24.115 21.717 24.115 L 21.573 24.065 L 21.479 23.969 C 21.447 23.937 21.406 23.892 21.263 24.014 L 21.148 24.113 L 18.82 24.308 L 18.743 23.887 C 18.692 23.598 18.719 22.608 21.246 21.97 C 21.43 21.903 21.917 21.656 22.036 21.259 L 22.062 21.169 L 20.097 21.169 L 20.097 20.193 C 19.193 20.377 18.367 20.515 18.111 20.474 L 17.939 20.443 L 17.827 20.31 C 17.791 20.268 17.527 19.944 17.523 19.48 C 17.523 19.386 17.532 19.284 17.558 19.179 C 17.68 18.654 18.124 18.226 18.88 17.896 C 19.222 17.75 19.752 17.461 20.097 17.157 L 20.097 16.135 C 19.763 16.214 19.457 16.221 19.224 16.105 L 19.158 16.07 L 19.103 16.017 C 19.087 16.009 18.895 15.81 18.89 15.475 C 18.888 15.236 18.993 14.925 19.323 14.565 C 19.402 14.395 19.636 13.939 20.097 13.48 L 20.097 11.47 L 23.688 11.47 C 23.825 11.273 23.913 11.042 23.908 10.776 C 23.908 10.768 23.908 10.758 23.906 10.747 C 23.685 10.767 23.287 10.859 22.642 11.244 L 22.473 11.348 L 22.28 11.298 C 22.055 11.24 21.309 10.996 21.26 10.388 C 21.258 10.371 21.256 10.353 21.256 10.337 C 21.252 9.846 21.716 9.447 22.152 9.231 C 22.152 9.231 22.148 9.229 22.148 9.226 C 22.079 9.145 21.974 8.805 21.986 8.75 C 22.006 8.159 22.722 7.709 23.358 7.223 C 23.387 7.196 23.415 7.163 23.444 7.135 C 23.36 7.079 23.285 7.012 23.232 6.914 C 23.18 6.82 23.155 6.728 23.155 6.631 C 23.15 6.265 23.114 5.729 23.939 5.17 C 23.9 5.116 23.81 4.988 23.81 4.988 C 23.763 4.92 23.581 4.474 23.579 4.151 C 23.577 4.032 23.603 3.91 23.665 3.788 C 23.765 3.593 23.849 3.365 24.372 3.352 C 24.368 3.352 24.505 3.352 24.505 3.352 C 24.519 3.35 24.695 2.973 24.822 2.728 C 24.818 2.716 24.818 2.703 24.813 2.693 L 16.746 2.693 L 10.836 8.592 L 10.836 24.793 L 15.864 29.826 L 18.43 29.826 C 18.635 29.439 19.167 28.851 20.538 28.62 C 20.555 28.616 21.152 28.459 21.479 28.072 Z " fill="rgb(255,255,255)"/><path d=" M 18.113 37.325 L 17.895 37.714 L 17.785 37.779 C 17.496 37.953 16.769 38.321 16.276 38.014 C 16.141 37.926 15.926 37.727 15.918 37.315 C 15.918 37.275 15.92 37.235 15.923 37.192 L 15.927 37.143 L 15.942 37.093 C 15.995 36.917 16.281 36.047 16.758 35.118 L 10.845 35.118 L 10.845 42.44 L 15.883 47.557 L 18.557 47.557 L 18.878 46.889 C 18.923 46.801 19.334 45.994 20.153 45.814 L 20.515 45.744 C 20.684 45.717 20.684 45.717 21.128 45.435 C 21.263 45.351 21.404 45.119 21.52 44.834 C 21.75 44.276 21.987 43.656 22.845 43.292 C 23.113 43.179 23.193 43.129 23.418 43.07 C 23.562 43.033 23.751 42.956 23.806 42.924 C 23.869 42.884 24.033 42.782 24.154 41.882 C 24.184 41.647 24.229 41.093 24.242 40.417 C 24.242 40.417 24.256 39.609 24.256 39.601 C 24.256 39.601 24.258 39.557 24.258 39.555 C 24.254 39.559 24.213 39.614 24.213 39.614 L 24.228 39.09 L 20.539 39.09 L 20.539 36.364 C 20.215 36.592 19.772 36.814 19.328 36.759 C 19.06 36.771 18.355 36.911 18.113 37.325 Z " fill="rgb(255,255,255)"/><path d=" M 32.424 46.945 L 32.496 47.556 L 34.222 47.556 L 39.245 42.521 L 39.245 26.094 L 34.083 21.175 L 29.016 21.175 C 29.155 21.265 29.296 21.35 29.451 21.418 C 30.447 21.862 31.022 22.586 31.053 23.044 C 31.053 23.054 31.053 23.065 31.053 23.077 C 31.055 23.266 30.963 23.5 30.689 23.628 C 30.5 23.718 29.801 23.831 29.448 23.679 C 29.124 23.645 28.568 23.589 27.965 23.536 C 28.263 24.138 28.76 24.453 29.613 24.956 C 29.613 24.956 30.149 25.278 30.301 25.37 C 31.285 25.454 32.444 25.692 32.643 26.36 C 32.66 26.421 32.673 26.492 32.673 26.563 C 32.677 26.789 32.572 27.074 32.191 27.365 C 31.927 27.576 31.645 27.852 31.6 27.953 C 31.588 27.986 31.553 28.099 31.553 28.099 L 31.434 28.192 C 31.132 28.417 30.397 28.685 29.721 28.135 C 29.116 27.74 28.398 27.428 28.122 27.426 C 28.115 27.455 28.106 27.488 28.106 27.488 L 28.061 27.555 C 28.036 27.599 28.021 27.66 28.021 27.735 C 28.025 28.02 28.252 28.522 29.101 29.175 C 29.197 29.229 30.08 29.755 30.866 29.644 L 30.939 29.631 L 31.014 29.646 C 31.177 29.675 31.987 29.853 32.143 30.487 C 32.244 30.903 32.021 31.334 31.487 31.757 C 31.468 31.778 31.448 31.799 31.434 31.824 C 31.475 31.845 31.543 31.87 31.648 31.901 C 31.953 31.966 33.806 32.494 34.26 35.708 C 34.325 35.967 34.299 36.319 34.022 36.54 C 33.571 36.903 32.876 36.587 32.323 36.269 L 32.293 36.252 L 32.264 36.227 C 31.888 35.928 31.443 35.63 31.038 35.398 L 31.038 39.085 L 27.089 39.085 L 27.147 40.73 L 27.147 40.755 C 27.147 40.762 27.072 41.017 27.194 41.63 C 27.415 42.706 27.766 43.555 28.157 43.754 C 29.176 44.271 29.496 44.531 29.75 44.83 C 29.954 45.071 30.075 45.215 30.672 45.41 C 32.065 45.874 32.356 46.294 32.424 46.945 Z " fill="rgb(255,255,255)"/><path d=" M 28.047 27.572 L 28.059 27.555 L 28.059 27.551 L 28.047 27.572 Z " fill="rgb(0,0,0)"/></g></g></g></svg>